<svg xmlns="http://www.w3.org/2000/svg" viewBox="0 0 512 512"><path d="M420.417 148.467L278.195 6.248A21.328 21.328 0 0 0 263.111 0H64C52.218 0 42.667 9.552 42.667 21.333V448c0 11.782 9.552 21.333 21.333 21.333h341.333c11.78 0 21.333-9.552 21.333-21.333V163.551a21.32 21.32 0 0 0-6.249-15.084z" fill="#d1f4ff"/><path d="M420.417 148.467L278.195 6.248A21.328 21.328 0 0 0 263.111 0h-28.444v469.333h170.667c11.78 0 21.333-9.552 21.333-21.333V163.551a21.325 21.325 0 0 0-6.25-15.084z" fill="#a7e5ff"/><path d="M418.995 148.467L278.195 7.67a21.332 21.332 0 1 0-36.417 15.085v140.796c0 11.782 9.552 21.333 21.333 21.333h140.8a21.336 21.336 0 0 0 19.709-13.17 21.326 21.326 0 0 0-4.625-23.247z" fill="#387896"/><path d="M448 426.667h-85.333c-11.782 0-21.333-9.552-21.333-21.333v-42.668c0-35.29 28.709-63.999 64-63.999 17.097 0 33.171 6.659 45.261 18.751 8.33 8.331 8.33 21.838-.001 30.171-8.331 8.33-21.838 8.329-30.171-.001a21.194 21.194 0 0 0-15.088-6.254c-11.765 0-21.333 9.57-21.333 21.332V384h64c11.782 0 21.333 9.552 21.333 21.333s-9.553 21.334-21.335 21.334z" fill="#408baf"/><path d="M420.422 347.585c8.331 8.33 21.838 8.331 30.171.001 8.33-8.331 8.331-21.838.001-30.171-12.09-12.09-28.164-18.749-45.261-18.749v42.667c5.699 0 11.058 2.22 15.089 6.252z" fill="#387896"/><path d="M448 384h-85.333c-11.782 0-21.333 9.552-21.333 21.333v85.333c0 11.782 9.552 21.333 21.333 21.333H448c11.782 0 21.333-9.552 21.333-21.333v-85.333c0-11.781-9.551-21.333-21.333-21.333z" fill="#eeb784"/><path d="M277.333 369.778h-128c-11.782 0-21.333-9.552-21.333-21.333s9.552-21.333 21.333-21.333h128c11.782 0 21.333 9.552 21.333 21.333s-9.551 21.333-21.333 21.333zm0-85.334h-128c-11.782 0-21.333-9.552-21.333-21.333s9.552-21.333 21.333-21.333h128c11.782 0 21.333 9.552 21.333 21.333s-9.551 21.333-21.333 21.333z" fill="#387896"/><path d="M277.333 327.111h-42.667v42.667h42.667c11.782 0 21.333-9.552 21.333-21.333s-9.551-21.334-21.333-21.334zm21.334-64c0-11.782-9.552-21.333-21.333-21.333h-42.667v42.667h42.667c11.781-.001 21.333-9.552 21.333-21.334z" fill="#275366"/><path d="M448 384h-42.667v128H448c11.782 0 21.333-9.552 21.333-21.333v-85.333c0-11.782-9.551-21.334-21.333-21.334z" fill="#e68842"/></svg>