<?xml version="1.0" encoding="iso-8859-1"?>
<!-- Generator: Adobe Illustrator 19.0.0, SVG Export Plug-In . SVG Version: 6.00 Build 0)  -->
<svg version="1.1" id="Layer_1" xmlns="http://www.w3.org/2000/svg" xmlns:xlink="http://www.w3.org/1999/xlink" x="0px" y="0px"
	 viewBox="0 0 512 512" style="enable-background:new 0 0 512 512;" xml:space="preserve">
<path style="fill:#D1F4FF;" d="M420.417,148.467L278.195,6.248C274.194,2.247,268.77,0,263.111,0H64
	C52.218,0,42.667,9.552,42.667,21.333V448c0,11.782,9.552,21.333,21.333,21.333h341.333c11.78,0,21.333-9.552,21.333-21.333V163.551
	C426.667,157.894,424.42,152.468,420.417,148.467z"/>
<path style="fill:#A7E5FF;" d="M420.417,148.467L278.195,6.248C274.194,2.247,268.77,0,263.111,0h-28.444v469.333h170.667
	c11.78,0,21.333-9.552,21.333-21.333V163.551C426.667,157.894,424.42,152.468,420.417,148.467z"/>
<path style="fill:#387896;" d="M418.995,148.467L278.195,7.67c-6.101-6.1-15.279-7.922-23.249-4.624
	c-7.972,3.302-13.168,11.081-13.168,19.709v140.796c0,11.782,9.552,21.333,21.333,21.333h140.8c8.627,0,16.405-5.198,19.709-13.17
	C426.923,163.743,425.098,154.569,418.995,148.467z"/>
<path style="fill:#408BAF;" d="M448,426.667h-85.333c-11.782,0-21.333-9.552-21.333-21.333v-42.668c0-35.29,28.709-63.999,64-63.999
	c17.097,0,33.171,6.659,45.261,18.751c8.33,8.331,8.33,21.838-0.001,30.171c-8.331,8.33-21.838,8.329-30.171-0.001
	c-4.031-4.033-9.39-6.254-15.088-6.254c-11.765,0-21.333,9.57-21.333,21.332V384h64c11.782,0,21.333,9.552,21.333,21.333
	S459.782,426.667,448,426.667z"/>
<path style="fill:#387896;" d="M420.422,347.585c8.331,8.33,21.838,8.331,30.171,0.001c8.33-8.331,8.331-21.838,0.001-30.171
	c-12.09-12.09-28.164-18.749-45.261-18.749v42.667C411.032,341.333,416.391,343.553,420.422,347.585z"/>
<path style="fill:#EEB784;" d="M448,384h-85.333c-11.782,0-21.333,9.552-21.333,21.333v85.333c0,11.782,9.552,21.333,21.333,21.333
	H448c11.782,0,21.333-9.552,21.333-21.333v-85.333C469.333,393.552,459.782,384,448,384z"/>
<g>
	<path style="fill:#387896;" d="M277.333,369.778h-128c-11.782,0-21.333-9.552-21.333-21.333s9.552-21.333,21.333-21.333h128
		c11.782,0,21.333,9.552,21.333,21.333S289.115,369.778,277.333,369.778z"/>
	<path style="fill:#387896;" d="M277.333,284.444h-128c-11.782,0-21.333-9.552-21.333-21.333s9.552-21.333,21.333-21.333h128
		c11.782,0,21.333,9.552,21.333,21.333S289.115,284.444,277.333,284.444z"/>
</g>
<g>
	<path style="fill:#275366;" d="M277.333,327.111h-42.667v42.667h42.667c11.782,0,21.333-9.552,21.333-21.333
		S289.115,327.111,277.333,327.111z"/>
	<path style="fill:#275366;" d="M298.667,263.111c0-11.782-9.552-21.333-21.333-21.333h-42.667v42.667h42.667
		C289.115,284.444,298.667,274.893,298.667,263.111z"/>
</g>
<path style="fill:#E68842;" d="M448,384h-42.667v128H448c11.782,0,21.333-9.552,21.333-21.333v-85.333
	C469.333,393.552,459.782,384,448,384z"/>
<g>
</g>
<g>
</g>
<g>
</g>
<g>
</g>
<g>
</g>
<g>
</g>
<g>
</g>
<g>
</g>
<g>
</g>
<g>
</g>
<g>
</g>
<g>
</g>
<g>
</g>
<g>
</g>
<g>
</g>
</svg>
