<svg xmlns="http://www.w3.org/2000/svg" viewBox="0 0 512 512"><path d="M76.597 91.126H2.112s-15.058-57.34 35.239-57.34l50.935 5.6-11.689 51.74z" fill="#d4d2d3"/><path d="M374.113 33.787H37.351c94.559 0 0 448.656 89.53 448.656h28.303l271.828-57.339c-20.051-120.982 20.501-391.317-52.899-391.317z" fill="#efedee"/><path d="M233.499 125.465H126.881a7.726 7.726 0 1 1 0-15.452h106.618a7.726 7.726 0 1 1 0 15.452zm144.92 259.586H321.34a7.726 7.726 0 1 1 0-15.452h57.078a7.726 7.726 0 0 1 .001 15.452zm-14.671-213.46H126.881a7.726 7.726 0 1 1 0-15.452h236.866a7.726 7.726 0 0 1 .001 15.452zm0 41.963H126.881a7.726 7.726 0 1 1 0-15.452h236.866a7.726 7.726 0 0 1 .001 15.452zm-55.193 41.962H126.881a7.726 7.726 0 1 1 0-15.452h181.673a7.726 7.726 0 0 1 7.726 7.726 7.724 7.724 0 0 1-7.725 7.726z" fill="#323e40"/><path d="M126.881 482.442c50.298 0 35.239-57.34 35.239-57.34h336.76s15.058 57.34-35.239 57.34h-336.76z" fill="#d4d2d3"/><path d="M298.686 298.171s243.895-231.606 210.101-265.4-265.4 210.102-265.4 210.102l55.299 55.298z" fill="#50c4df"/><path d="M508.787 32.771c-2.67-2.67-6.579-3.603-11.507-3.063-6.292 57.444-213.164 253.893-213.164 253.893l14.569 14.569c0 .001 243.895-231.606 210.102-265.399z" fill="#1aa5c4"/><path d="M233.803 255.093s-23.797 26.321-51.087 29.669c0 0-6.222 56.979-40.702 91.449l6.202 6.202 9.891.59 1.039 10.341 6.191 6.191c34.48-34.47 91.459-40.692 91.459-40.692 3.348-27.289 29.669-51.087 29.669-51.087l-52.662-52.663z" fill="#a19fa0"/><path d="M229.61 334.365c-4.203 4.203-10.188 5.542-15.525 4.038l-54.94 54.94-10.93-10.93 54.94-54.94c-1.504-5.336-.165-11.322 4.038-15.525 6.191-6.191 16.225-6.191 22.417 0 6.181 6.192 6.181 16.226 0 22.417z" fill="#878586"/><path d="M353.092 188.467c21.081 21.081 35.607 17.053 35.607 17.053 23.453-4.65 31.076-31.076 31.076-31.076s-14.528 4.028-35.607-17.053c-21.081-21.081-17.053-35.607-17.053-35.607s-26.425 7.623-31.076 31.076c0 0-4.028 14.526 17.053 35.607z" fill="#ff8b5d"/><path d="M419.775 174.443s-8.626 2.378-22.22-6.159c-1.764 5.085-10.16 25.876-30.71 29.95 0 0-.601.163-1.716.251 14.371 9.568 23.57 7.033 23.57 7.033 23.453-4.65 31.076-31.075 31.076-31.075z" fill="#ea6a3d"/><path d="M250.86 290.699c21.081 21.081 35.607 17.053 35.607 17.053 23.453-4.65 32.723-29.43 32.723-29.43s-16.173 2.382-37.253-18.699c-21.081-21.081-18.699-37.253-18.699-37.253s-24.78 9.27-29.43 32.723c-.001-.001-4.029 14.525 17.052 35.606z" fill="#ff8b5d"/><path d="M319.189 278.321s-8.909 1.302-22.117-6.633c-1.651 3.93-11.26 24.576-32.459 28.78 0 0-.6.163-1.716.251 14.371 9.568 23.57 7.033 23.57 7.033 23.453-4.652 32.722-29.431 32.722-29.431z" fill="#ea6a3d"/></svg>