<svg xmlns="http://www.w3.org/2000/svg" viewBox="0 0 496.485 496.485"><circle cx="248.242" cy="248.145" r="247.467" fill="#4fbf9f"/><path fill="#e1e6e9" d="M290.133 7.661L120.242 83.685l169.891 76.8 170.667-76.8z"/><path d="M290.133 168.242c-.776 0-2.327 0-3.103-.776L117.139 91.442c-3.103-1.552-4.655-3.879-4.655-6.982s1.552-6.206 4.655-6.982L287.03.678c2.327-.776 4.655-.776 6.206 0l169.891 76.024c3.103 1.552 4.655 3.879 4.655 6.982s-1.552 6.206-4.655 6.982L293.236 166.69c-.775.777-1.551 1.552-3.103 1.552zM138.861 83.685l151.273 67.491 151.273-67.491-151.274-67.491-151.272 67.491z" fill="#193651"/><path d="M390.982 174.448V98.424c-62.836-28.703-138.861-28.703-201.697 0v76.024h201.697z" fill="#fff"/><path d="M390.982 182.206H189.285c-4.655 0-7.758-3.103-7.758-7.758V98.424c0-3.103 1.552-5.43 4.655-6.982 31.806-14.739 68.267-22.497 103.952-22.497 36.461 0 72.145 7.758 103.952 22.497 3.103 1.552 4.655 3.879 4.655 6.982v76.024c0 2.327-.776 3.879-2.327 5.43-1.553 1.552-3.105 2.328-5.432 2.328zm-193.94-15.515h186.182v-62.836c-57.406-24.824-128.776-24.824-186.182 0v62.836zm-48.097-6.982c-4.655 0-7.758-3.103-7.758-7.758V96.873c0-4.655 3.103-7.758 7.758-7.758 4.655 0 7.758 3.103 7.758 7.758v55.079c0 3.878-3.879 7.757-7.758 7.757z" fill="#193651"/><path d="M344.436 227.2c0 28.703 22.497 51.976 51.2 51.976H58.958c-28.703 0-51.2-23.273-51.2-51.976s22.497-51.976 51.2-51.976h336.679c-27.928-.776-51.201 22.497-51.201 51.976z" fill="#e1e6e9"/><path d="M395.636 271.418c-24.048 0-43.442-20.17-43.442-44.218 0-24.824 19.394-44.218 43.442-44.218 4.655 0 7.758-3.103 7.758-7.758 0-4.655-3.103-7.758-7.758-7.758H58.958C26.376 166.691 0 193.842 0 227.2c0 32.582 26.376 59.733 58.958 59.733h336.679c4.655 0 7.758-3.103 7.758-7.758-.001-3.878-3.104-7.757-7.759-7.757zm-336.678 0c-24.048 0-43.442-20.17-43.442-44.218 0-24.824 19.394-44.218 43.442-44.218h297.891c-11.636 10.861-19.394 27.152-19.394 44.218s7.758 33.358 19.394 44.218H58.958z" fill="#193651"/><path d="M58.958 257.455c-13.188 0-24.048-13.188-24.048-30.255 0-16.291 10.861-30.255 24.048-30.255H321.94c-2.327 9.309-3.879 19.394-3.879 30.255s1.552 20.945 3.879 30.255H58.958z" fill="#fff"/><path d="M344.436 234.958H82.23c-4.655 0-7.758-3.103-7.758-7.758 0-4.655 3.103-7.758 7.758-7.758h262.206c4.655 0 7.758 3.103 7.758 7.758 0 3.879-3.103 7.758-7.758 7.758z" fill="#193651"/><path d="M390.982 331.927c0-28.703 22.497-51.976 51.2-51.976H58.958c-28.703-.776-51.2 22.497-51.2 51.976 0 28.703 22.497 51.976 51.2 51.976h383.224c-27.927 0-51.2-23.273-51.2-51.976z" fill="#f16051"/><path d="M442.182 391.661H58.958C26.376 391.661 0 364.509 0 331.927s26.376-60.509 58.958-60.509h383.224c4.655 0 7.758 3.103 7.758 7.758 0 4.655-3.103 7.758-7.758 7.758-24.048 0-43.442 20.17-43.442 44.218 0 24.824 19.394 44.218 43.442 44.218 4.655 0 7.758 3.103 7.758 7.758-.001 5.43-3.104 8.533-7.758 8.533zM58.958 286.933c-24.048 0-43.442 20.17-43.442 44.994s19.394 44.218 43.442 44.218h344.436C391.758 365.285 384 348.994 384 331.927c0-17.842 7.758-33.358 19.394-44.218H58.958v-.776z" fill="#193651"/><path d="M58.958 362.182c-13.188 0-24.048-13.188-24.048-30.255 0-16.291 10.861-30.255 24.048-30.255h309.527c-2.327 9.309-3.879 19.394-3.879 30.255s1.552 20.945 3.879 30.255H58.958z" fill="#fff"/><path d="M390.982 339.685H82.23c-4.655 0-7.758-3.103-7.758-7.758s3.103-7.758 7.758-7.758h308.752c4.655 0 7.758 3.103 7.758 7.758-.001 3.879-3.104 7.758-7.758 7.758z" fill="#193651"/><path d="M437.527 436.655c0 28.703 22.497 51.976 51.2 51.976H58.958c-28.703 0-51.2-23.273-51.2-51.976s22.497-51.976 51.2-51.976h429.77c-27.928-.776-51.201 22.497-51.201 51.976z" fill="#fdbf5e"/><path d="M488.727 496.388H58.958C26.376 496.388 0 469.236 0 436.655c0-33.358 26.376-59.733 58.958-59.733h429.77c4.655 0 7.758 3.103 7.758 7.758 0 4.655-3.103 7.758-7.758 7.758-24.048 0-43.442 20.17-43.442 44.218 0 24.824 19.394 44.218 43.442 44.218 4.655 0 7.758 3.103 7.758 7.758s-3.104 7.756-7.759 7.756zM58.958 391.661c-24.048 0-43.442 20.17-43.442 44.218 0 24.824 19.394 44.994 43.442 44.994h390.206c-11.636-10.861-19.394-27.152-19.394-44.218 0-17.842 7.758-33.358 19.394-44.218H58.958v-.776z" fill="#193651"/><path d="M58.958 466.133c-13.188 0-24.048-13.188-24.048-30.255 0-16.291 10.861-30.255 24.048-30.255H415.03c-2.327 9.309-3.879 19.394-3.879 30.255s1.552 20.945 3.879 30.255H58.958z" fill="#fff"/><path d="M437.527 444.412H82.23c-4.655 0-7.758-3.103-7.758-7.758 0-4.655 3.103-7.758 7.758-7.758h355.297c4.655 0 7.758 3.103 7.758 7.758 0 3.879-3.103 7.758-7.758 7.758zM240.485 121.697H256v15.515h-15.515zm41.891 0h15.515v15.515h-15.515zm41.891 0h15.515v15.515h-15.515z" fill="#193651"/></svg>